<svg xmlns="http://www.w3.org/2000/svg" viewBox="0 0 146.68 21.4"><defs><style>.cls-1{fill:#fff;}.cls-2{fill:#2b2d42;}</style></defs><title>logo_1</title><g id="Layer_2" data-name="Layer 2"><g id="Layer_1-2" data-name="Layer 1"><rect class="cls-1" x="0.5" y="0.5" width="99" height="20.4" rx="2.05"/><path class="cls-2" d="M97.45,1A1.56,1.56,0,0,1,99,2.55v16.3a1.55,1.55,0,0,1-1.55,1.55H2.55A1.55,1.55,0,0,1,1,18.85V2.55A1.56,1.56,0,0,1,2.55,1h94.9m0-1H2.55A2.55,2.55,0,0,0,0,2.55v16.3A2.55,2.55,0,0,0,2.55,21.4h94.9A2.55,2.55,0,0,0,100,18.85V2.55A2.55,2.55,0,0,0,97.45,0Z"/><path class="cls-2" d="M12,16.44H7.37a.17.17,0,0,1-.19-.19v-.82a.17.17,0,0,1,.19-.19H8.6V6.15H7.37A.17.17,0,0,1,7.18,6V5.14A.17.17,0,0,1,7.37,5h4.32a5.77,5.77,0,0,1,4.22,1.53,5.58,5.58,0,0,1,1.57,4.2A5.8,5.8,0,0,1,16,14.89,5.33,5.33,0,0,1,12,16.44Zm-2-1.2h1.59q4.44,0,4.44-4.53a4.68,4.68,0,0,0-1.14-3.36,4.41,4.41,0,0,0-3.35-1.2H10Z"/><path class="cls-2" d="M29.93,10.64a5.91,5.91,0,0,1-1.58,4.27,5.28,5.28,0,0,1-4,1.64,5.31,5.31,0,0,1-4-1.66,5.86,5.86,0,0,1-1.6-4.27,5.52,5.52,0,0,1,5.59-5.77A5.46,5.46,0,0,1,28.3,6.43,5.6,5.6,0,0,1,29.93,10.64ZM21.52,14a3.91,3.91,0,0,0,2.86,1.22A3.86,3.86,0,0,0,27.22,14a4.57,4.57,0,0,0,1.22-3.36A4.43,4.43,0,0,0,27.2,7.33a3.93,3.93,0,0,0-2.82-1.21,4,4,0,0,0-2.84,1.21,4.43,4.43,0,0,0-1.24,3.34A4.53,4.53,0,0,0,21.52,14Z"/><path class="cls-2" d="M41.78,16.44h-.84c-.14,0-.21-.07-.21-.19V15.14A5.07,5.07,0,0,1,37,16.55a5.2,5.2,0,0,1-3.91-1.63,5.92,5.92,0,0,1-1.57-4.29,6.13,6.13,0,0,1,.79-3.12,5.17,5.17,0,0,1,2-2A5.51,5.51,0,0,1,37,4.85a4,4,0,0,1,3.52,1.52l0-1.23c0-.13,0-.19.19-.19h.9c.14,0,.21.06.21.19v3.3c0,.13-.07.19-.21.19h-1a.17.17,0,0,1-.19-.19V8.25a1.85,1.85,0,0,0-1-1.4,4.21,4.21,0,0,0-2.47-.68,3.68,3.68,0,0,0-2.71,1.24A4.51,4.51,0,0,0,33,10.72,4.43,4.43,0,0,0,34.22,14a3.79,3.79,0,0,0,2.72,1.21,4.93,4.93,0,0,0,2.37-.48,3.62,3.62,0,0,0,1.31-1.14V12.34h-3c-.13,0-.19-.07-.19-.21V11.4a.17.17,0,0,1,.19-.19h4.14c.13,0,.2.06.2.19v4.85A.18.18,0,0,1,41.78,16.44Z"/><path class="cls-2" d="M57.48,16.44H48.73c-.14,0-.21-.07-.21-.19v-.82c0-.13.07-.19.21-.19h1.21V6.15H48.73c-.14,0-.21-.06-.21-.19V5.14c0-.13.07-.19.21-.19h3.82a.19.19,0,0,1,.21.21v.78a.19.19,0,0,1-.21.21H51.34v9.09h5.08V13.67c0-.13.07-.19.21-.19h.87a.17.17,0,0,1,.19.19v2.56A.19.19,0,0,1,57.48,16.44Z"/><path class="cls-2" d="M70.26,16.44H66.65a.17.17,0,0,1-.19-.19v-.82a.17.17,0,0,1,.19-.19h1.12l-1-2.77H62.26l-1,2.77h1.12c.13,0,.2.06.2.19v.82a.18.18,0,0,1-.2.19h-3.6a.17.17,0,0,1-.19-.19v-.82a.17.17,0,0,1,.19-.19h1.08l3.44-9.09h-.87c-.14,0-.21-.06-.21-.19V5.14c0-.13.07-.19.21-.19h2.18a.89.89,0,0,1,.58.16,1.22,1.22,0,0,1,.35.53l3.68,9.6h1.08c.13,0,.2.06.2.19v.82A.18.18,0,0,1,70.26,16.44Zm-4-5.07L64.52,6.61h0l-1.79,4.76Z"/><path class="cls-2" d="M81,16.44H80.1a.85.85,0,0,1-.48-.12,1.27,1.27,0,0,1-.33-.38L74.66,8.71l-.8-1.34h0v7.87h1.23c.14,0,.21.06.21.19v.82c0,.12-.07.19-.21.19H71.22c-.14,0-.2-.07-.2-.19v-.82c0-.13.06-.19.2-.19h1.22V6.15H71.22c-.14,0-.2-.06-.2-.19V5.14c0-.13.06-.19.2-.19h2.24a1,1,0,0,1,.82.54l4.56,7.14.91,1.55h0v-8H78.55A.17.17,0,0,1,78.36,6V5.14A.17.17,0,0,1,78.55,5h3.86a.17.17,0,0,1,.19.19V6a.17.17,0,0,1-.19.19H81.18v10.1C81.18,16.37,81.11,16.44,81,16.44Z"/><path class="cls-2" d="M92.62,16.44h-8.5c-.14,0-.21-.07-.21-.19v-.82c0-.13.07-.19.21-.19h1.22V6.15H84.12c-.14,0-.21-.06-.21-.19V5.14c0-.13.07-.19.21-.19h8.5c.13,0,.2.06.2.19V7.72a.18.18,0,0,1-.2.21h-.87c-.13,0-.19-.07-.19-.21V6.15H86.73v4h4c.13,0,.2.06.2.19v.82a.18.18,0,0,1-.2.19h-4v3.92h4.81V13.67c0-.13.07-.19.21-.19h.87c.13,0,.2.06.2.19v2.58A.18.18,0,0,1,92.62,16.44Z"/><path class="cls-2" d="M143.27.76a.23.23,0,0,1,.15-.07.27.27,0,0,1,.16.08l.49.61a.21.21,0,0,1,0,.31l-2.69,2.14c-.13.08-.23.06-.3-.05l-.4-.46a.19.19,0,0,1,0-.31Z"/><path class="cls-2" d="M114.86,13.54a.22.22,0,0,1,.08.15.75.75,0,0,1-.07.24,2.23,2.23,0,0,1-.25.4A4.68,4.68,0,0,1,114,15a5.22,5.22,0,0,1-1,.75,5.45,5.45,0,0,1-1.35.55,6.53,6.53,0,0,1-1.8.24,5.16,5.16,0,0,1-3.9-1.63,6,6,0,0,1-1.56-4.28,5.7,5.7,0,0,1,1.58-4.22,5.22,5.22,0,0,1,3.8-1.57,4,4,0,0,1,3.6,1.72l0-1.43c0-.13,0-.19.19-.19h.9c.14,0,.21.06.21.19V8.63a.19.19,0,0,1-.21.21h-1c-.13,0-.19-.07-.19-.21V8.49a2.12,2.12,0,0,0-1-1.53,3.87,3.87,0,0,0-2.49-.79,3.75,3.75,0,0,0-2.68,1.17A4.5,4.5,0,0,0,106,10.67a4.48,4.48,0,0,0,1.2,3.34,3.86,3.86,0,0,0,2.82,1.2,4.28,4.28,0,0,0,3.9-2c.09-.16.19-.19.31-.1Z"/><path class="cls-2" d="M127,16.44h-3.61a.17.17,0,0,1-.19-.19v-.82a.17.17,0,0,1,.19-.19h1.12l-1-2.77H119l-1,2.77h1.12a.17.17,0,0,1,.19.19v.82a.17.17,0,0,1-.19.19h-3.6a.17.17,0,0,1-.19-.19v-.82a.17.17,0,0,1,.19-.19h1.07L120,6.15h-.87c-.14,0-.21-.06-.21-.19V5.14c0-.13.07-.19.21-.19h2.18a.89.89,0,0,1,.58.16,1.21,1.21,0,0,1,.34.53l3.69,9.6H127c.13,0,.2.06.2.19v.82A.18.18,0,0,1,127,16.44Zm-4-5.07-1.78-4.76h-.05l-1.79,4.76Z"/><path class="cls-2" d="M132.41,16.44H128c-.14,0-.2-.07-.2-.19v-.82c0-.13.06-.19.2-.19h1.22V6.15H128c-.14,0-.2-.06-.2-.19V5.14c0-.13.06-.19.2-.19h8.21c.14,0,.21.06.21.19V7.72a.19.19,0,0,1-.21.21h-.86c-.13,0-.19-.07-.19-.21V6.15H130.6v4h3.76c.14,0,.21.06.21.19v.82c0,.12-.07.19-.21.19H130.6v3.92h1.81a.17.17,0,0,1,.19.19v.82A.17.17,0,0,1,132.41,16.44Z"/><path class="cls-2" d="M146.47,16.44H138c-.14,0-.21-.07-.21-.19v-.82c0-.13.07-.19.21-.19h1.21V6.15H138c-.14,0-.21-.06-.21-.19V5.14c0-.13.07-.19.21-.19h8.49c.14,0,.21.06.21.19V7.72a.19.19,0,0,1-.21.21h-.86c-.13,0-.19-.07-.19-.21V6.15h-4.84v4h4c.14,0,.21.06.21.19v.82c0,.12-.07.19-.21.19h-4v3.92h4.82V13.67c0-.13.07-.19.21-.19h.86c.14,0,.21.06.21.19v2.58C146.68,16.37,146.61,16.44,146.47,16.44Z"/></g></g></svg>