<svg xmlns="http://www.w3.org/2000/svg" viewBox="0 0 100 21.4"><defs><style>.cls-1{fill:#fff;}</style></defs><title>logo</title><g id="Layer_2" data-name="Layer 2"><g id="Layer_1-2" data-name="Layer 1"><rect class="cls-1" x="0.5" y="0.5" width="99" height="20.4" rx="2.05"/><path d="M97.45,1A1.56,1.56,0,0,1,99,2.55v16.3a1.55,1.55,0,0,1-1.55,1.55H2.55A1.55,1.55,0,0,1,1,18.85V2.55A1.56,1.56,0,0,1,2.55,1h94.9m0-1H2.55A2.55,2.55,0,0,0,0,2.55v16.3A2.55,2.55,0,0,0,2.55,21.4h94.9A2.55,2.55,0,0,0,100,18.85V2.55A2.55,2.55,0,0,0,97.45,0Z"/><path d="M6.4,4.41h4.86a7,7,0,0,1,2.45.42,5.69,5.69,0,0,1,2,1.21,5.61,5.61,0,0,1,1.35,2,6.7,6.7,0,0,1,.5,2.7,6.57,6.57,0,0,1-.51,2.66,5.63,5.63,0,0,1-1.39,2,6.13,6.13,0,0,1-2.07,1.22,7.49,7.49,0,0,1-2.52.42H6.4ZM11.15,14.8a4.48,4.48,0,0,0,1.54-.25,3.41,3.41,0,0,0,1.24-.77,3.53,3.53,0,0,0,.82-1.27,4.9,4.9,0,0,0,.3-1.79,5,5,0,0,0-.3-1.8,3.37,3.37,0,0,0-2.06-2,4.26,4.26,0,0,0-1.54-.26H9V14.8Z"/><path d="M25,17.17a6.78,6.78,0,0,1-2.66-.49,5.79,5.79,0,0,1-2-1.37,6.06,6.06,0,0,1-1.25-2.06,7.38,7.38,0,0,1-.44-2.57,7.16,7.16,0,0,1,.44-2.51,6.21,6.21,0,0,1,1.25-2,5.68,5.68,0,0,1,2-1.38A6.61,6.61,0,0,1,25,4.23a6.78,6.78,0,0,1,2.66.5,5.89,5.89,0,0,1,2,1.35,6,6,0,0,1,1.25,2.05,7.34,7.34,0,0,1,.43,2.55,7.32,7.32,0,0,1-.43,2.54,6.06,6.06,0,0,1-1.25,2.06,6,6,0,0,1-2,1.38A6.61,6.61,0,0,1,25,17.17ZM25,6.34a3.61,3.61,0,0,0-1.7.37,3.55,3.55,0,0,0-1.18,1,4.19,4.19,0,0,0-.68,1.39,5.81,5.81,0,0,0-.22,1.59,5.74,5.74,0,0,0,.22,1.61,4.24,4.24,0,0,0,.68,1.4,3.46,3.46,0,0,0,1.18,1,4,4,0,0,0,3.4,0,3.46,3.46,0,0,0,1.18-1,4.45,4.45,0,0,0,.68-1.4,5.74,5.74,0,0,0,.22-1.61,5.81,5.81,0,0,0-.22-1.59,4.39,4.39,0,0,0-.68-1.39,3.55,3.55,0,0,0-1.18-1A3.64,3.64,0,0,0,25,6.34Z"/><path d="M42.41,17V15.57a4.11,4.11,0,0,1-1.63,1.18,5.41,5.41,0,0,1-2.11.42,6.62,6.62,0,0,1-2.73-.52A5.46,5.46,0,0,1,34,15.24a5.89,5.89,0,0,1-1.14-2.05,7.54,7.54,0,0,1-.38-2.43,7.41,7.41,0,0,1,.42-2.5,6.11,6.11,0,0,1,1.27-2.09,5.88,5.88,0,0,1,2.06-1.42A7.17,7.17,0,0,1,39,4.23a5.9,5.9,0,0,1,3.39.9,5.91,5.91,0,0,1,2.06,2.55L42,8.71A3.25,3.25,0,0,0,40.9,7a3.31,3.31,0,0,0-2-.62,3.61,3.61,0,0,0-1.7.37,3.72,3.72,0,0,0-1.19,1,4.24,4.24,0,0,0-.7,1.41,5.48,5.48,0,0,0-.23,1.6,6.44,6.44,0,0,0,.2,1.57,4.2,4.2,0,0,0,.66,1.4,3.25,3.25,0,0,0,1.17,1,3.68,3.68,0,0,0,1.73.38,3.84,3.84,0,0,0,2.53-.78,2.88,2.88,0,0,0,1-2.08H38.55V10.13h6.09V17Z"/><path d="M49.46,4.41H52V14.73H57.9V17H49.46Z"/><path d="M66.12,4.41,70.61,17H67.94l-1-2.76H62.12L61.19,17H58.61L63.1,4.41ZM64.56,6.8l-1,3.09-.78,2.29h3.49l-.78-2.29Z"/><path d="M79.83,4.41h2.41V17h-2.5L74.93,9.77,74,8.38l0,2.48L74.14,17H71.72V4.41H74l4.8,7.17,1.11,1.69,0-3Z"/><path d="M84.1,4.41h9.24v2.2H86.62V9.23h5v2.08h-5V14.8h7V17H84.1Z"/></g></g></svg>