<svg xmlns="http://www.w3.org/2000/svg" viewBox="0 0 146.68 21.4"><defs><style>.cls-1{fill:#fff;}</style></defs><title>logo-dlc</title><g id="Layer_2" data-name="Layer 2"><g id="Layer_1-2" data-name="Layer 1"><rect class="cls-1" x="0.75" y="0.75" width="98.5" height="19.9" rx="1.8"/><path d="M97.45,1.5a1,1,0,0,1,1,1v16.3a1,1,0,0,1-1,1H2.55a1,1,0,0,1-1-1V2.55a1,1,0,0,1,1-1h94.9m0-1.5H2.55A2.55,2.55,0,0,0,0,2.55v16.3A2.55,2.55,0,0,0,2.55,21.4h94.9A2.55,2.55,0,0,0,100,18.85V2.55A2.55,2.55,0,0,0,97.45,0Z"/><path d="M6.4,4.41h4.86a7,7,0,0,1,2.45.42,5.69,5.69,0,0,1,2,1.21,5.61,5.61,0,0,1,1.35,2,6.7,6.7,0,0,1,.5,2.7,6.57,6.57,0,0,1-.51,2.66,5.63,5.63,0,0,1-1.39,2,6.13,6.13,0,0,1-2.07,1.22,7.49,7.49,0,0,1-2.52.42H6.4ZM11.15,14.8a4.48,4.48,0,0,0,1.54-.25,3.41,3.41,0,0,0,1.24-.77,3.53,3.53,0,0,0,.82-1.27,4.9,4.9,0,0,0,.3-1.79,5,5,0,0,0-.3-1.8,3.37,3.37,0,0,0-2.06-2,4.26,4.26,0,0,0-1.54-.26H9V14.8Z"/><path d="M25,17.17a6.78,6.78,0,0,1-2.66-.49,5.79,5.79,0,0,1-2-1.37,6.06,6.06,0,0,1-1.25-2.06,7.38,7.38,0,0,1-.44-2.57,7.16,7.16,0,0,1,.44-2.51,6.21,6.21,0,0,1,1.25-2,5.68,5.68,0,0,1,2-1.38A6.61,6.61,0,0,1,25,4.23a6.78,6.78,0,0,1,2.66.5,5.89,5.89,0,0,1,2,1.35,6,6,0,0,1,1.25,2.05,7.34,7.34,0,0,1,.43,2.55,7.32,7.32,0,0,1-.43,2.54,6.06,6.06,0,0,1-1.25,2.06,6,6,0,0,1-2,1.38A6.61,6.61,0,0,1,25,17.17ZM25,6.34a3.61,3.61,0,0,0-1.7.37,3.55,3.55,0,0,0-1.18,1,4.19,4.19,0,0,0-.68,1.39,5.81,5.81,0,0,0-.22,1.59,5.74,5.74,0,0,0,.22,1.61,4.24,4.24,0,0,0,.68,1.4,3.46,3.46,0,0,0,1.18,1,4,4,0,0,0,3.4,0,3.46,3.46,0,0,0,1.18-1,4.45,4.45,0,0,0,.68-1.4,5.74,5.74,0,0,0,.22-1.61,5.81,5.81,0,0,0-.22-1.59,4.39,4.39,0,0,0-.68-1.39,3.55,3.55,0,0,0-1.18-1A3.64,3.64,0,0,0,25,6.34Z"/><path d="M42.41,17V15.57a4.11,4.11,0,0,1-1.63,1.18,5.41,5.41,0,0,1-2.11.42,6.62,6.62,0,0,1-2.73-.52A5.46,5.46,0,0,1,34,15.24a5.89,5.89,0,0,1-1.14-2.05,7.54,7.54,0,0,1-.38-2.43,7.41,7.41,0,0,1,.42-2.5,6.11,6.11,0,0,1,1.27-2.09,5.88,5.88,0,0,1,2.06-1.42A7.17,7.17,0,0,1,39,4.23a5.9,5.9,0,0,1,3.39.9,5.91,5.91,0,0,1,2.06,2.55L42,8.71A3.25,3.25,0,0,0,40.9,7a3.31,3.31,0,0,0-2-.62,3.61,3.61,0,0,0-1.7.37,3.72,3.72,0,0,0-1.19,1,4.24,4.24,0,0,0-.7,1.41,5.48,5.48,0,0,0-.23,1.6,6.44,6.44,0,0,0,.2,1.57,4.2,4.2,0,0,0,.66,1.4,3.25,3.25,0,0,0,1.17,1,3.68,3.68,0,0,0,1.73.38,3.84,3.84,0,0,0,2.53-.78,2.88,2.88,0,0,0,1-2.08H38.55V10.13h6.09V17Z"/><path d="M49.46,4.41H52V14.73H57.9V17H49.46Z"/><path d="M66.12,4.41,70.61,17H67.94l-1-2.76H62.12L61.19,17H58.61L63.1,4.41ZM64.56,6.8l-1,3.09-.78,2.29h3.49l-.78-2.29Z"/><path d="M79.83,4.41h2.41V17h-2.5L74.93,9.77,74,8.38l0,2.48L74.14,17H71.72V4.41H74l4.8,7.17,1.11,1.69,0-3Z"/><path d="M84.1,4.41h9.24v2.2H86.62V9.23h5v2.08h-5V14.8h7V17H84.1Z"/><path d="M143.27.76a.23.23,0,0,1,.15-.07.27.27,0,0,1,.16.08l.49.61a.21.21,0,0,1,0,.31l-2.69,2.14c-.13.08-.23.06-.3-.05l-.4-.46a.19.19,0,0,1,0-.31Z"/><path d="M114.86,13.54a.22.22,0,0,1,.08.15.75.75,0,0,1-.07.24,2.23,2.23,0,0,1-.25.4A4.68,4.68,0,0,1,114,15a5.22,5.22,0,0,1-1,.75,5.45,5.45,0,0,1-1.35.55,6.53,6.53,0,0,1-1.8.24,5.16,5.16,0,0,1-3.9-1.63,6,6,0,0,1-1.56-4.28,5.7,5.7,0,0,1,1.58-4.22,5.22,5.22,0,0,1,3.8-1.57,4,4,0,0,1,3.6,1.72l0-1.43c0-.13,0-.19.19-.19h.9c.14,0,.21.06.21.19V8.63a.19.19,0,0,1-.21.21h-1c-.13,0-.19-.07-.19-.21V8.49a2.12,2.12,0,0,0-1-1.53,3.87,3.87,0,0,0-2.49-.79,3.75,3.75,0,0,0-2.68,1.17A4.5,4.5,0,0,0,106,10.67a4.48,4.48,0,0,0,1.2,3.34,3.86,3.86,0,0,0,2.82,1.2,4.28,4.28,0,0,0,3.9-2c.09-.16.19-.19.31-.1Z"/><path d="M127,16.44h-3.61a.17.17,0,0,1-.19-.19v-.82a.17.17,0,0,1,.19-.19h1.12l-1-2.77H119l-1,2.77h1.12a.17.17,0,0,1,.19.19v.82a.17.17,0,0,1-.19.19h-3.6a.17.17,0,0,1-.19-.19v-.82a.17.17,0,0,1,.19-.19h1.07L120,6.15h-.87c-.14,0-.21-.06-.21-.19V5.14c0-.13.07-.19.21-.19h2.18a.89.89,0,0,1,.58.16,1.21,1.21,0,0,1,.34.53l3.69,9.6H127c.13,0,.2.06.2.19v.82A.18.18,0,0,1,127,16.44Zm-4-5.07-1.78-4.76h-.05l-1.79,4.76Z"/><path d="M132.41,16.44H128c-.14,0-.2-.07-.2-.19v-.82c0-.13.06-.19.2-.19h1.22V6.15H128c-.14,0-.2-.06-.2-.19V5.14c0-.13.06-.19.2-.19h8.21c.14,0,.21.06.21.19V7.72a.19.19,0,0,1-.21.21h-.86c-.13,0-.19-.07-.19-.21V6.15H130.6v4h3.76c.14,0,.21.06.21.19v.82c0,.12-.07.19-.21.19H130.6v3.92h1.81a.17.17,0,0,1,.19.19v.82A.17.17,0,0,1,132.41,16.44Z"/><path d="M146.47,16.44H138c-.14,0-.21-.07-.21-.19v-.82c0-.13.07-.19.21-.19h1.21V6.15H138c-.14,0-.21-.06-.21-.19V5.14c0-.13.07-.19.21-.19h8.49c.14,0,.21.06.21.19V7.72a.19.19,0,0,1-.21.21h-.86c-.13,0-.19-.07-.19-.21V6.15h-4.84v4h4c.14,0,.21.06.21.19v.82c0,.12-.07.19-.21.19h-4v3.92h4.82V13.67c0-.13.07-.19.21-.19h.86c.14,0,.21.06.21.19v2.58C146.68,16.37,146.61,16.44,146.47,16.44Z"/></g></g></svg>